<?xml version="1.0" encoding="iso-8859-1"?>
<!-- Uploaded to: SVG Repo, www.svgrepo.com, Generator: SVG Repo Mixer Tools -->
<svg version="1.1" id="Layer_1" xmlns="http://www.w3.org/2000/svg" xmlns:xlink="http://www.w3.org/1999/xlink" 
	 viewBox="0 0 512 512" xml:space="preserve">
<path d="M355,512H157c-35.2,0-64-28.8-64-64V64c0-35.2,28.8-64,64-64h198c35.2,0,64,28.8,64,64v384C419,483.2,390.2,512,355,512z"/>
<rect x="118" y="60.416" style="fill:#FFFFFF;" width="280" height="376.96"/>
<g>
	<circle style="fill:#CCCCCC;" cx="256" cy="30.176" r="12"/>
	<path style="fill:#CCCCCC;" d="M283.128,488.272h-54.264c-7.496,0-13.568-6.064-13.568-13.568c0-7.496,6.064-13.568,13.568-13.568
		h54.264c7.496,0,13.568,6.064,13.568,13.568C296.696,482.208,290.632,488.272,283.128,488.272z"/>
</g>
<g>
	<rect x="151.216" y="350.296" style="fill:#FF583E;" width="209.6" height="8"/>
	<rect x="174.472" y="377.2" style="fill:#FF583E;" width="163.064" height="8"/>
</g>
<rect x="160" y="112.56" style="fill:#32BEA6;" width="192" height="192"/>
<path d="M290.68,176.576h-9v-20.304c0-2.48-2.016-4.496-4.496-4.496h-42.36c-2.48,0-4.496,2.016-4.496,4.496v20.304h-9v-20.304
	c0-7.44,6.056-13.496,13.496-13.496h42.36c7.44,0,13.496,6.056,13.496,13.496V176.576z"/>
<path style="fill:#FFFFFF;" d="M204.24,171.312l-20.216,97.648h143.952l-20.216-97.648H204.24z"/>
<path d="M234.256,205.8c-4.336,0-7.856-3.52-7.856-7.864s3.52-7.864,7.856-7.864s7.856,3.52,7.856,7.864
	S238.592,205.8,234.256,205.8z M277.744,205.8c-4.336,0-7.856-3.52-7.856-7.864s3.52-7.864,7.856-7.864s7.856,3.52,7.856,7.864
	C285.6,202.28,282.08,205.8,277.744,205.8z"/>
</svg>